<svg width="966mm" height="190mm" viewBox="0 0 966 190" xmlns="http://www.w3.org/2000/svg" version="1.1" preserveAspectRatio="xMidYMid meet"><g id="svgGroup" stroke-linecap="round" fill-rule="evenodd" font-size="9pt" stroke="#000" stroke-width="0.25mm" fill="none" style="stroke:#000;stroke-width:0.25mm;fill:none"><path d="M 0 140 L 0 147.736 L 3.175 147.736 L 3.175 159.245 L 0 159.245 L 0 170.755 L 3.175 170.755 L 3.175 182.264 L 0 182.264 L 0 190 L 25.614 190 L 25.614 186.825 L 37.123 186.825 L 37.123 190 L 48.633 190 L 48.633 186.825 L 60.142 186.825 L 60.142 190 L 71.652 190 L 71.652 186.825 L 83.161 186.825 L 83.161 190 L 94.67 190 L 94.67 186.825 L 106.18 186.825 L 106.18 190 L 117.689 190 L 117.689 186.825 L 129.198 186.825 L 129.198 190 L 140.708 190 L 140.708 186.825 L 152.217 186.825 L 152.217 190 L 163.727 190 L 163.727 186.825 L 175.236 186.825 L 175.236 190 L 186.745 190 L 186.745 186.825 L 198.255 186.825 L 198.255 190 L 209.764 190 L 209.764 186.825 L 221.273 186.825 L 221.273 190 L 232.783 190 L 232.783 186.825 L 244.292 186.825 L 244.292 190 L 255.802 190 L 255.802 186.825 L 267.311 186.825 L 267.311 190 L 278.82 190 L 278.82 186.825 L 290.33 186.825 L 290.33 190 L 301.839 190 L 301.839 186.825 L 313.348 186.825 L 313.348 190 L 324.858 190 L 324.858 186.825 L 336.367 186.825 L 336.367 190 L 347.877 190 L 347.877 186.825 L 359.386 186.825 L 359.386 190 L 370.895 190 L 385 190 L 385 182.264 L 381.825 182.264 L 381.825 170.755 L 385 170.755 L 385 159.245 L 381.825 159.245 L 381.825 147.736 L 385 147.736 L 385 140 L 0 140 Z" id="front_outsideCutPath" stroke="#FF0000" stroke-width="0.1" style="stroke:#FF0000;stroke-width:0.1" vector-effect="non-scaling-stroke"/><path d="M 199.788 168.777 L 198.977 168.777 L 198.977 165.315 A 2.291 2.291 0 0 0 198.951 164.956 Q 198.889 164.565 198.679 164.338 A 0.914 0.914 0 0 0 198.304 164.099 Q 198.069 164.016 197.747 164.016 A 2.453 2.453 0 0 0 197.288 164.056 Q 196.791 164.151 196.516 164.47 Q 196.159 164.885 196.128 165.793 A 5.193 5.193 0 0 0 196.125 165.969 L 196.125 168.777 L 195.315 168.777 L 195.315 163.425 L 195.974 163.425 L 196.106 164.158 L 196.145 164.158 A 1.641 1.641 0 0 1 196.788 163.573 A 1.974 1.974 0 0 1 196.843 163.545 A 2.195 2.195 0 0 1 197.624 163.336 A 2.654 2.654 0 0 1 197.844 163.328 A 3.2 3.2 0 0 1 198.389 163.371 Q 198.96 163.47 199.299 163.794 A 1.405 1.405 0 0 1 199.642 164.331 Q 199.724 164.553 199.76 164.827 A 3.537 3.537 0 0 1 199.788 165.286 L 199.788 168.777 Z M 184.216 163.425 L 184.216 164.055 L 182.854 164.055 L 182.854 168.777 L 182.043 168.777 L 182.043 164.055 L 181.086 164.055 L 181.086 163.689 L 182.043 163.396 L 182.043 163.098 A 3.285 3.285 0 0 1 182.12 162.354 Q 182.407 161.125 183.767 161.125 A 2.61 2.61 0 0 1 184.136 161.154 Q 184.316 161.179 184.516 161.229 A 5.247 5.247 0 0 1 184.763 161.296 L 184.553 161.946 Q 184.22 161.838 183.956 161.807 A 1.743 1.743 0 0 0 183.752 161.794 A 1.093 1.093 0 0 0 183.489 161.824 A 0.702 0.702 0 0 0 183.074 162.1 Q 182.854 162.405 182.854 163.079 L 182.854 163.425 L 184.216 163.425 Z M 203.914 168.108 L 203.914 168.728 A 0.797 0.797 0 0 1 203.819 168.765 Q 203.718 168.799 203.574 168.825 A 3.033 3.033 0 0 1 203.525 168.833 Q 203.269 168.874 203.064 168.874 A 2.117 2.117 0 0 1 202.44 168.79 Q 201.511 168.504 201.511 167.239 L 201.511 164.055 L 200.745 164.055 L 200.745 163.664 L 201.511 163.328 L 201.853 162.185 L 202.322 162.185 L 202.322 163.425 L 203.875 163.425 L 203.875 164.055 L 202.322 164.055 L 202.322 167.204 A 1.632 1.632 0 0 0 202.345 167.491 Q 202.373 167.648 202.435 167.773 A 0.786 0.786 0 0 0 202.551 167.947 Q 202.781 168.205 203.181 168.205 A 2.662 2.662 0 0 0 203.571 168.178 A 2.453 2.453 0 0 0 203.596 168.174 Q 203.796 168.142 203.914 168.108 Z M 188.274 163.386 L 188.162 164.138 Q 187.885 164.077 187.663 164.067 A 1.901 1.901 0 0 0 187.576 164.065 Q 186.926 164.065 186.465 164.592 A 1.851 1.851 0 0 0 186.018 165.631 A 2.46 2.46 0 0 0 186.003 165.906 L 186.003 168.777 L 185.193 168.777 L 185.193 163.425 L 185.862 163.425 L 185.955 164.416 L 185.994 164.416 A 2.737 2.737 0 0 1 186.3 163.979 A 2.091 2.091 0 0 1 186.711 163.611 Q 187.131 163.328 187.634 163.328 A 3.721 3.721 0 0 1 187.967 163.342 A 2.716 2.716 0 0 1 188.274 163.386 Z M 193.82 166.911 A 4.187 4.187 0 0 0 193.894 166.096 Q 193.894 165.576 193.784 165.144 A 2.524 2.524 0 0 0 193.232 164.075 A 2.122 2.122 0 0 0 192.247 163.439 A 2.724 2.724 0 0 0 191.448 163.328 A 3.148 3.148 0 0 0 190.882 163.376 A 2.144 2.144 0 0 0 189.631 164.058 A 2.239 2.239 0 0 0 189.356 164.439 Q 188.977 165.1 188.977 166.096 A 4.055 4.055 0 0 0 189.028 166.753 A 2.998 2.998 0 0 0 189.28 167.571 A 2.664 2.664 0 0 0 189.339 167.686 A 2.194 2.194 0 0 0 190.139 168.537 Q 190.696 168.874 191.414 168.874 A 3.147 3.147 0 0 0 191.963 168.828 A 2.161 2.161 0 0 0 193.235 168.14 A 2.261 2.261 0 0 0 193.504 167.77 Q 193.724 167.394 193.82 166.911 Z M 189.817 166.096 Q 189.817 167.121 190.227 167.659 A 1.328 1.328 0 0 0 191.092 168.168 A 2.013 2.013 0 0 0 191.433 168.196 A 1.883 1.883 0 0 0 191.93 168.134 A 1.31 1.31 0 0 0 192.642 167.661 A 1.74 1.74 0 0 0 192.913 167.133 Q 192.992 166.889 193.027 166.592 A 4.27 4.27 0 0 0 193.054 166.096 A 4.044 4.044 0 0 0 193.016 165.52 Q 192.974 165.226 192.884 164.989 A 1.669 1.669 0 0 0 192.642 164.546 A 1.333 1.333 0 0 0 191.813 164.051 A 2.044 2.044 0 0 0 191.423 164.016 A 1.929 1.929 0 0 0 190.943 164.072 A 1.291 1.291 0 0 0 190.222 164.538 Q 189.817 165.061 189.817 166.096 Z" id="front_labelLayer" stroke="#777777" fill="#777777" style="stroke:#777777;fill:#777777" vector-effect="non-scaling-stroke"/><path d="M 391.175 140 L 391.175 147.736 L 388 147.736 L 388 159.245 L 391.175 159.245 L 391.175 170.755 L 388 170.755 L 388 182.264 L 391.175 182.264 L 391.175 190 L 408.189 190 L 408.189 186.825 L 419.698 186.825 L 419.698 190 L 431.208 190 L 431.208 186.825 L 442.717 186.825 L 442.717 190 L 454.227 190 L 454.227 186.825 L 465.736 186.825 L 465.736 190 L 477.245 190 L 477.245 186.825 L 488.755 186.825 L 488.755 190 L 500.264 190 L 500.264 186.825 L 511.773 186.825 L 511.773 190 L 523.283 190 L 523.283 186.825 L 534.792 186.825 L 534.792 190 L 546.302 190 L 546.302 186.825 L 557.811 186.825 L 557.811 190 L 569.32 190 L 574.825 190 L 574.825 182.264 L 578 182.264 L 578 170.755 L 574.825 170.755 L 574.825 159.245 L 578 159.245 L 578 147.736 L 574.825 147.736 L 574.825 140 L 391.175 140 Z" id="left_outsideCutPath" stroke="#FF0000" stroke-width="0.1" style="stroke:#FF0000;stroke-width:0.1" vector-effect="non-scaling-stroke"/><path d="M 486.557 163.425 L 486.557 164.055 L 485.195 164.055 L 485.195 168.777 L 484.384 168.777 L 484.384 164.055 L 483.427 164.055 L 483.427 163.689 L 484.384 163.396 L 484.384 163.098 A 3.285 3.285 0 0 1 484.461 162.354 Q 484.748 161.125 486.108 161.125 A 2.61 2.61 0 0 1 486.477 161.154 Q 486.657 161.179 486.857 161.229 A 5.247 5.247 0 0 1 487.104 161.296 L 486.894 161.946 Q 486.561 161.838 486.297 161.807 A 1.743 1.743 0 0 0 486.093 161.794 A 1.093 1.093 0 0 0 485.83 161.824 A 0.702 0.702 0 0 0 485.415 162.1 Q 485.195 162.405 485.195 163.079 L 485.195 163.425 L 486.557 163.425 Z M 482.763 165.735 L 482.763 166.247 L 479.077 166.247 Q 479.093 166.891 479.309 167.323 A 1.522 1.522 0 0 0 479.553 167.678 A 1.473 1.473 0 0 0 480.326 168.114 A 2.232 2.232 0 0 0 480.825 168.166 A 4.281 4.281 0 0 0 482.428 167.849 A 4.905 4.905 0 0 0 482.534 167.805 L 482.534 168.528 A 4.866 4.866 0 0 1 482.09 168.695 A 3.721 3.721 0 0 1 481.721 168.794 Q 481.337 168.874 480.795 168.874 A 3.15 3.15 0 0 1 480.007 168.781 A 2.23 2.23 0 0 1 478.923 168.152 Q 478.276 167.471 478.239 166.291 A 4.63 4.63 0 0 1 478.237 166.145 A 4.256 4.256 0 0 1 478.316 165.301 Q 478.419 164.788 478.66 164.389 A 2.4 2.4 0 0 1 478.874 164.089 A 2.077 2.077 0 0 1 480.388 163.334 A 2.865 2.865 0 0 1 480.585 163.328 A 2.469 2.469 0 0 1 481.281 163.421 A 1.879 1.879 0 0 1 482.177 163.989 A 2.266 2.266 0 0 1 482.691 165.025 A 3.299 3.299 0 0 1 482.763 165.735 Z M 489.995 168.108 L 489.995 168.728 A 0.797 0.797 0 0 1 489.9 168.765 Q 489.799 168.799 489.655 168.825 A 3.033 3.033 0 0 1 489.606 168.833 Q 489.35 168.874 489.145 168.874 A 2.117 2.117 0 0 1 488.521 168.79 Q 487.592 168.504 487.592 167.239 L 487.592 164.055 L 486.826 164.055 L 486.826 163.664 L 487.592 163.328 L 487.934 162.185 L 488.403 162.185 L 488.403 163.425 L 489.956 163.425 L 489.956 164.055 L 488.403 164.055 L 488.403 167.204 A 1.632 1.632 0 0 0 488.426 167.491 Q 488.454 167.648 488.516 167.773 A 0.786 0.786 0 0 0 488.632 167.947 Q 488.862 168.205 489.262 168.205 A 2.662 2.662 0 0 0 489.652 168.178 A 2.453 2.453 0 0 0 489.677 168.174 Q 489.877 168.142 489.995 168.108 Z M 476.816 161.179 L 476.816 168.777 L 476.005 168.777 L 476.005 161.179 L 476.816 161.179 Z M 479.096 165.588 L 481.894 165.588 Q 481.894 165.07 481.738 164.715 A 1.254 1.254 0 0 0 481.552 164.414 A 1.11 1.11 0 0 0 480.884 164.033 A 1.666 1.666 0 0 0 480.576 164.006 Q 479.931 164.006 479.548 164.426 A 1.601 1.601 0 0 0 479.229 164.963 Q 479.128 165.24 479.096 165.588 Z" id="left_labelLayer" stroke="#777777" fill="#777777" style="stroke:#777777;fill:#777777" vector-effect="non-scaling-stroke"/><path d="M 0 87 L 0 94.736 L 3.175 94.736 L 3.175 106.245 L 0 106.245 L 0 117.755 L 3.175 117.755 L 3.175 129.264 L 0 129.264 L 0 137 L 25.614 137 L 25.614 133.825 L 37.123 133.825 L 37.123 137 L 48.633 137 L 48.633 133.825 L 60.142 133.825 L 60.142 137 L 71.652 137 L 71.652 133.825 L 83.161 133.825 L 83.161 137 L 94.67 137 L 94.67 133.825 L 106.18 133.825 L 106.18 137 L 117.689 137 L 117.689 133.825 L 129.198 133.825 L 129.198 137 L 140.708 137 L 140.708 133.825 L 152.217 133.825 L 152.217 137 L 163.727 137 L 163.727 133.825 L 175.236 133.825 L 175.236 137 L 186.745 137 L 186.745 133.825 L 198.255 133.825 L 198.255 137 L 209.764 137 L 209.764 133.825 L 221.273 133.825 L 221.273 137 L 232.783 137 L 232.783 133.825 L 244.292 133.825 L 244.292 137 L 255.802 137 L 255.802 133.825 L 267.311 133.825 L 267.311 137 L 278.82 137 L 278.82 133.825 L 290.33 133.825 L 290.33 137 L 301.839 137 L 301.839 133.825 L 313.348 133.825 L 313.348 137 L 324.858 137 L 324.858 133.825 L 336.367 133.825 L 336.367 137 L 347.877 137 L 347.877 133.825 L 359.386 133.825 L 359.386 137 L 370.895 137 L 385 137 L 385 129.264 L 381.825 129.264 L 381.825 117.755 L 385 117.755 L 385 106.245 L 381.825 106.245 L 381.825 94.736 L 385 94.736 L 385 87 L 0 87 Z" id="back_outsideCutPath" stroke="#FF0000" stroke-width="0.1" style="stroke:#FF0000;stroke-width:0.1" vector-effect="non-scaling-stroke"/><path d="M 199.346 113.011 L 199.385 113.011 A 4.798 4.798 0 0 1 199.503 112.85 Q 199.64 112.673 199.835 112.446 A 17.416 17.416 0 0 1 200.024 112.229 L 201.753 110.398 L 202.715 110.398 L 200.547 112.679 L 202.866 115.75 L 201.885 115.75 L 199.995 113.221 L 199.385 113.748 L 199.385 115.75 L 198.584 115.75 L 198.584 108.152 L 199.385 108.152 L 199.385 112.181 A 5.402 5.402 0 0 1 199.382 112.333 Q 199.375 112.583 199.347 112.99 A 33.76 33.76 0 0 1 199.346 113.011 Z M 182.944 115.061 L 182.886 115.061 L 182.715 115.75 L 182.134 115.75 L 182.134 108.152 L 182.944 108.152 L 182.944 109.998 Q 182.944 110.598 182.908 111.079 A 10.075 10.075 0 0 1 182.905 111.111 L 182.944 111.111 A 1.843 1.843 0 0 1 184.289 110.33 A 2.768 2.768 0 0 1 184.624 110.31 A 2.477 2.477 0 0 1 185.321 110.404 A 1.854 1.854 0 0 1 186.262 111.031 Q 186.729 111.607 186.823 112.568 A 5.203 5.203 0 0 1 186.846 113.069 A 4.752 4.752 0 0 1 186.783 113.869 Q 186.71 114.295 186.553 114.637 A 2.278 2.278 0 0 1 186.257 115.118 A 1.919 1.919 0 0 1 184.894 115.835 A 2.749 2.749 0 0 1 184.624 115.848 Q 184.102 115.848 183.669 115.655 A 1.795 1.795 0 0 1 182.944 115.061 Z M 192.153 115.75 L 191.553 115.75 L 191.392 114.988 L 191.353 114.988 A 3.36 3.36 0 0 1 191.081 115.293 Q 190.817 115.552 190.554 115.669 A 1.869 1.869 0 0 1 190.168 115.791 Q 189.896 115.848 189.561 115.848 A 2.487 2.487 0 0 1 189.054 115.799 Q 188.745 115.735 188.507 115.585 A 1.396 1.396 0 0 1 188.313 115.437 A 1.332 1.332 0 0 1 187.911 114.735 A 2.039 2.039 0 0 1 187.861 114.27 A 1.403 1.403 0 0 1 188.659 112.947 Q 189.3 112.606 190.454 112.571 L 191.362 112.542 L 191.362 112.21 A 2.328 2.328 0 0 0 191.34 111.873 Q 191.314 111.701 191.261 111.563 A 0.905 0.905 0 0 0 191.091 111.28 Q 190.875 111.04 190.452 110.992 A 2.003 2.003 0 0 0 190.225 110.979 A 2.639 2.639 0 0 0 189.617 111.055 Q 189.339 111.121 189.035 111.245 A 5.428 5.428 0 0 0 188.711 111.39 L 188.462 110.769 A 3.737 3.737 0 0 1 189.183 110.473 A 4.254 4.254 0 0 1 189.329 110.433 A 3.754 3.754 0 0 1 190.273 110.31 A 3.423 3.423 0 0 1 190.795 110.347 Q 191.367 110.436 191.692 110.735 A 1.284 1.284 0 0 1 192.023 111.246 Q 192.1 111.456 192.132 111.717 A 3.189 3.189 0 0 1 192.153 112.098 L 192.153 115.75 Z M 197.393 110.579 L 197.144 111.268 A 3.606 3.606 0 0 0 196.752 111.137 A 4.306 4.306 0 0 0 196.558 111.089 Q 196.286 111.029 196.068 111.02 A 1.797 1.797 0 0 0 195.996 111.018 A 1.798 1.798 0 0 0 195.266 111.156 Q 194.365 111.553 194.365 113.099 A 3.925 3.925 0 0 0 194.404 113.67 Q 194.447 113.96 194.537 114.195 A 1.681 1.681 0 0 0 194.763 114.612 A 1.287 1.287 0 0 0 195.597 115.111 A 1.961 1.961 0 0 0 195.942 115.14 A 3.393 3.393 0 0 0 196.878 115.003 A 4.189 4.189 0 0 0 197.314 114.852 L 197.314 115.569 A 2.306 2.306 0 0 1 196.75 115.769 Q 196.49 115.827 196.187 115.842 A 4.445 4.445 0 0 1 195.962 115.848 A 3.029 3.029 0 0 1 195.225 115.763 A 2.054 2.054 0 0 1 194.163 115.132 A 2.345 2.345 0 0 1 193.675 114.237 Q 193.567 113.881 193.537 113.454 A 4.901 4.901 0 0 1 193.525 113.108 A 4.472 4.472 0 0 1 193.595 112.295 Q 193.679 111.841 193.865 111.484 A 2.235 2.235 0 0 1 194.172 111.033 A 2.099 2.099 0 0 1 195.322 110.372 A 3.182 3.182 0 0 1 196.016 110.301 Q 196.401 110.301 196.787 110.384 A 4.046 4.046 0 0 1 197.012 110.438 Q 197.242 110.502 197.393 110.579 Z M 183.624 111.19 A 1.078 1.078 0 0 0 183.311 111.465 Q 182.944 111.941 182.944 113.069 A 5.359 5.359 0 0 0 182.971 113.623 Q 183.029 114.182 183.216 114.522 A 1.222 1.222 0 0 0 183.32 114.683 A 1.176 1.176 0 0 0 183.917 115.086 Q 184.116 115.148 184.359 115.164 A 2.606 2.606 0 0 0 184.526 115.169 A 1.616 1.616 0 0 0 184.985 115.107 A 1.166 1.166 0 0 0 185.64 114.624 Q 186.006 114.08 186.006 113.06 A 4.789 4.789 0 0 0 185.977 112.514 Q 185.903 111.87 185.64 111.502 Q 185.273 110.989 184.507 110.989 Q 183.967 110.989 183.624 111.19 Z M 191.343 113.602 L 191.343 113.118 L 190.532 113.152 Q 189.565 113.186 189.138 113.453 A 0.865 0.865 0 0 0 188.726 114.08 A 1.28 1.28 0 0 0 188.711 114.28 A 1.158 1.158 0 0 0 188.74 114.546 Q 188.788 114.75 188.917 114.891 A 0.722 0.722 0 0 0 188.977 114.949 A 0.882 0.882 0 0 0 189.308 115.125 Q 189.438 115.163 189.595 115.174 A 1.823 1.823 0 0 0 189.722 115.179 A 2.232 2.232 0 0 0 190.204 115.13 Q 190.539 115.055 190.787 114.869 A 1.353 1.353 0 0 0 190.911 114.764 Q 191.343 114.349 191.343 113.602 Z" id="back_labelLayer" stroke="#777777" fill="#777777" style="stroke:#777777;fill:#777777" vector-effect="non-scaling-stroke"/><path d="M 391.175 87 L 391.175 94.736 L 388 94.736 L 388 106.245 L 391.175 106.245 L 391.175 117.755 L 388 117.755 L 388 129.264 L 391.175 129.264 L 391.175 137 L 408.189 137 L 408.189 133.825 L 419.698 133.825 L 419.698 137 L 431.208 137 L 431.208 133.825 L 442.717 133.825 L 442.717 137 L 454.227 137 L 454.227 133.825 L 465.736 133.825 L 465.736 137 L 477.245 137 L 477.245 133.825 L 488.755 133.825 L 488.755 137 L 500.264 137 L 500.264 133.825 L 511.773 133.825 L 511.773 137 L 523.283 137 L 523.283 133.825 L 534.792 133.825 L 534.792 137 L 546.302 137 L 546.302 133.825 L 557.811 133.825 L 557.811 137 L 569.32 137 L 574.825 137 L 574.825 129.264 L 578 129.264 L 578 117.755 L 574.825 117.755 L 574.825 106.245 L 578 106.245 L 578 94.736 L 574.825 94.736 L 574.825 87 L 391.175 87 Z" id="right_outsideCutPath" stroke="#FF0000" stroke-width="0.1" style="stroke:#FF0000;stroke-width:0.1" vector-effect="non-scaling-stroke"/><path d="M 489.218 114.598 L 488.408 114.598 L 488.408 111.136 A 2.291 2.291 0 0 0 488.381 110.776 Q 488.319 110.386 488.11 110.159 A 0.914 0.914 0 0 0 487.735 109.92 Q 487.5 109.837 487.177 109.837 A 2.453 2.453 0 0 0 486.719 109.877 Q 486.464 109.925 486.269 110.033 A 1.135 1.135 0 0 0 485.944 110.296 A 1.349 1.349 0 0 0 485.715 110.701 Q 485.577 111.073 485.559 111.625 A 5.231 5.231 0 0 0 485.556 111.8 L 485.556 114.598 L 484.746 114.598 L 484.746 107 L 485.556 107 L 485.556 109.3 A 7.291 7.291 0 0 1 485.551 109.58 Q 485.546 109.711 485.536 109.824 A 3.171 3.171 0 0 1 485.517 109.988 L 485.566 109.988 A 1.619 1.619 0 0 1 486.133 109.442 A 1.978 1.978 0 0 1 486.247 109.38 A 2.081 2.081 0 0 1 486.93 109.178 A 2.631 2.631 0 0 1 487.255 109.158 A 3.288 3.288 0 0 1 487.808 109.201 Q 488.102 109.252 488.334 109.36 A 1.461 1.461 0 0 1 488.728 109.624 A 1.411 1.411 0 0 1 489.076 110.171 Q 489.218 110.559 489.218 111.106 L 489.218 114.598 Z M 481.796 109.246 L 483.647 109.246 L 483.647 109.759 L 482.656 109.876 Q 482.792 110.047 482.9 110.323 Q 483.007 110.599 483.007 110.945 A 1.858 1.858 0 0 1 482.922 111.521 A 1.503 1.503 0 0 1 482.47 112.2 Q 481.986 112.622 481.178 112.664 A 3.521 3.521 0 0 1 480.996 112.669 A 2.605 2.605 0 0 1 480.694 112.652 A 2.2 2.2 0 0 1 480.546 112.63 A 1.442 1.442 0 0 0 480.314 112.78 Q 480.194 112.877 480.124 112.988 A 0.61 0.61 0 0 0 480.029 113.318 Q 480.029 113.538 480.209 113.643 Q 480.39 113.748 480.83 113.748 L 481.777 113.748 A 3.318 3.318 0 0 1 482.281 113.784 Q 482.544 113.824 482.757 113.911 A 1.465 1.465 0 0 1 483.112 114.114 A 1.186 1.186 0 0 1 483.553 114.87 A 1.781 1.781 0 0 1 483.579 115.179 Q 483.579 116.067 482.866 116.534 Q 482.369 116.859 481.553 116.957 A 6.424 6.424 0 0 1 480.786 117 A 4.541 4.541 0 0 1 480.176 116.962 Q 479.558 116.878 479.167 116.609 A 1.292 1.292 0 0 1 478.751 116.157 Q 478.617 115.91 478.601 115.597 A 1.711 1.711 0 0 1 478.598 115.506 A 1.239 1.239 0 0 1 478.911 114.661 Q 479.223 114.305 479.79 114.178 A 0.841 0.841 0 0 1 479.463 113.914 A 0.999 0.999 0 0 1 479.445 113.89 A 0.751 0.751 0 0 1 479.307 113.483 A 0.931 0.931 0 0 1 479.306 113.436 A 0.927 0.927 0 0 1 479.353 113.137 A 0.821 0.821 0 0 1 479.462 112.923 A 1.16 1.16 0 0 1 479.616 112.75 Q 479.697 112.674 479.802 112.599 A 2.546 2.546 0 0 1 479.956 112.498 A 1.421 1.421 0 0 1 479.338 112.004 A 1.761 1.761 0 0 1 479.279 111.917 A 1.676 1.676 0 0 1 479.022 111.109 A 2.045 2.045 0 0 1 479.018 110.979 Q 479.018 110.101 479.545 109.624 A 1.721 1.721 0 0 1 480.206 109.26 Q 480.469 109.18 480.784 109.157 A 3.58 3.58 0 0 1 481.04 109.148 A 3.107 3.107 0 0 1 481.451 109.174 A 2.366 2.366 0 0 1 481.796 109.246 Z M 493.344 113.929 L 493.344 114.549 A 0.797 0.797 0 0 1 493.25 114.586 Q 493.149 114.62 493.004 114.646 A 3.033 3.033 0 0 1 492.956 114.654 Q 492.7 114.695 492.495 114.695 A 2.117 2.117 0 0 1 491.871 114.611 Q 490.942 114.325 490.942 113.06 L 490.942 109.876 L 490.175 109.876 L 490.175 109.485 L 490.942 109.148 L 491.284 108.006 L 491.752 108.006 L 491.752 109.246 L 493.305 109.246 L 493.305 109.876 L 491.752 109.876 L 491.752 113.025 A 1.632 1.632 0 0 0 491.776 113.312 Q 491.804 113.469 491.866 113.594 A 0.786 0.786 0 0 0 491.982 113.768 Q 492.211 114.026 492.612 114.026 A 2.662 2.662 0 0 0 493.002 113.998 A 2.453 2.453 0 0 0 493.027 113.995 Q 493.227 113.963 493.344 113.929 Z M 475.737 109.207 L 475.625 109.959 Q 475.348 109.898 475.126 109.888 A 1.901 1.901 0 0 0 475.039 109.886 Q 474.389 109.886 473.928 110.413 A 1.851 1.851 0 0 0 473.481 111.452 A 2.46 2.46 0 0 0 473.466 111.727 L 473.466 114.598 L 472.656 114.598 L 472.656 109.246 L 473.325 109.246 L 473.417 110.237 L 473.457 110.237 A 2.737 2.737 0 0 1 473.763 109.8 A 2.091 2.091 0 0 1 474.174 109.432 Q 474.594 109.148 475.097 109.148 A 3.721 3.721 0 0 1 475.43 109.163 A 2.716 2.716 0 0 1 475.737 109.207 Z M 477.548 109.246 L 477.548 114.598 L 476.738 114.598 L 476.738 109.246 L 477.548 109.246 Z M 481.518 114.476 L 480.546 114.476 A 1.863 1.863 0 0 0 480.211 114.504 Q 479.894 114.562 479.687 114.739 Q 479.379 115.003 479.379 115.496 A 0.814 0.814 0 0 0 479.433 115.798 Q 479.52 116.017 479.746 116.155 Q 480.112 116.38 480.795 116.38 A 5.449 5.449 0 0 0 481.328 116.356 Q 481.861 116.303 482.196 116.136 A 1.346 1.346 0 0 0 482.307 116.075 Q 482.797 115.77 482.797 115.247 A 1.097 1.097 0 0 0 482.777 115.029 Q 482.724 114.766 482.529 114.644 A 0.769 0.769 0 0 0 482.347 114.564 Q 482.057 114.476 481.518 114.476 Z M 479.819 110.96 A 1.582 1.582 0 0 0 479.851 111.292 Q 479.921 111.614 480.136 111.81 Q 480.454 112.098 481.02 112.098 Q 481.957 112.098 482.154 111.379 A 1.642 1.642 0 0 0 482.207 110.945 Q 482.207 109.988 481.45 109.791 A 1.763 1.763 0 0 0 481.005 109.739 Q 480.568 109.739 480.285 109.92 A 0.933 0.933 0 0 0 480.126 110.047 Q 479.865 110.308 479.826 110.783 A 2.132 2.132 0 0 0 479.819 110.96 Z M 476.806 107.388 A 0.379 0.379 0 0 0 476.722 107.507 Q 476.669 107.623 476.669 107.796 Q 476.669 107.934 476.704 108.036 A 0.418 0.418 0 0 0 476.806 108.204 Q 476.943 108.338 477.148 108.338 A 0.473 0.473 0 0 0 477.485 108.204 A 0.396 0.396 0 0 0 477.562 108.101 Q 477.597 108.035 477.613 107.95 A 0.839 0.839 0 0 0 477.626 107.796 A 0.927 0.927 0 0 0 477.622 107.708 Q 477.603 107.5 477.485 107.391 A 0.478 0.478 0 0 0 477.148 107.259 A 0.619 0.619 0 0 0 477.107 107.26 A 0.469 0.469 0 0 0 476.806 107.388 Z" id="right_labelLayer" stroke="#777777" fill="#777777" style="stroke:#777777;fill:#777777" vector-effect="non-scaling-stroke"/><path d="M 584.175 3.175 L 584.175 20.189 L 581 20.189 L 581 31.698 L 584.175 31.698 L 584.175 43.208 L 581 43.208 L 581 54.717 L 584.175 54.717 L 584.175 66.227 L 581 66.227 L 581 77.736 L 584.175 77.736 L 584.175 89.245 L 581 89.245 L 581 100.755 L 584.175 100.755 L 584.175 112.264 L 581 112.264 L 581 123.773 L 584.175 123.773 L 584.175 135.283 L 581 135.283 L 581 146.792 L 584.175 146.792 L 584.175 158.302 L 581 158.302 L 581 169.811 L 584.175 169.811 L 584.175 181.32 L 584.175 186.825 L 606.614 186.825 L 606.614 190 L 618.123 190 L 618.123 186.825 L 629.633 186.825 L 629.633 190 L 641.142 190 L 641.142 186.825 L 652.652 186.825 L 652.652 190 L 664.161 190 L 664.161 186.825 L 675.67 186.825 L 675.67 190 L 687.18 190 L 687.18 186.825 L 698.689 186.825 L 698.689 190 L 710.198 190 L 710.198 186.825 L 721.708 186.825 L 721.708 190 L 733.217 190 L 733.217 186.825 L 744.727 186.825 L 744.727 190 L 756.236 190 L 756.236 186.825 L 767.745 186.825 L 767.745 190 L 779.255 190 L 779.255 186.825 L 790.764 186.825 L 790.764 190 L 802.273 190 L 802.273 186.825 L 813.783 186.825 L 813.783 190 L 825.292 190 L 825.292 186.825 L 836.802 186.825 L 836.802 190 L 848.311 190 L 848.311 186.825 L 859.82 186.825 L 859.82 190 L 871.33 190 L 871.33 186.825 L 882.839 186.825 L 882.839 190 L 894.348 190 L 894.348 186.825 L 905.858 186.825 L 905.858 190 L 917.367 190 L 917.367 186.825 L 928.877 186.825 L 928.877 190 L 940.386 190 L 940.386 186.825 L 951.895 186.825 L 962.825 186.825 L 962.825 169.811 L 966 169.811 L 966 158.302 L 962.825 158.302 L 962.825 146.792 L 966 146.792 L 966 135.283 L 962.825 135.283 L 962.825 123.773 L 966 123.773 L 966 112.264 L 962.825 112.264 L 962.825 100.755 L 966 100.755 L 966 89.245 L 962.825 89.245 L 962.825 77.736 L 966 77.736 L 966 66.227 L 962.825 66.227 L 962.825 54.717 L 966 54.717 L 966 43.208 L 962.825 43.208 L 962.825 31.698 L 966 31.698 L 966 20.189 L 962.825 20.189 L 962.825 8.68 L 962.825 3.175 L 940.386 3.175 L 940.386 0 L 928.877 0 L 928.877 3.175 L 917.367 3.175 L 917.367 0 L 905.858 0 L 905.858 3.175 L 894.348 3.175 L 894.348 0 L 882.839 0 L 882.839 3.175 L 871.33 3.175 L 871.33 0 L 859.82 0 L 859.82 3.175 L 848.311 3.175 L 848.311 0 L 836.802 0 L 836.802 3.175 L 825.292 3.175 L 825.292 0 L 813.783 0 L 813.783 3.175 L 802.273 3.175 L 802.273 0 L 790.764 0 L 790.764 3.175 L 779.255 3.175 L 779.255 0 L 767.745 0 L 767.745 3.175 L 756.236 3.175 L 756.236 0 L 744.727 0 L 744.727 3.175 L 733.217 3.175 L 733.217 0 L 721.708 0 L 721.708 3.175 L 710.198 3.175 L 710.198 0 L 698.689 0 L 698.689 3.175 L 687.18 3.175 L 687.18 0 L 675.67 0 L 675.67 3.175 L 664.161 3.175 L 664.161 0 L 652.652 0 L 652.652 3.175 L 641.142 3.175 L 641.142 0 L 629.633 0 L 629.633 3.175 L 618.123 3.175 L 618.123 0 L 606.614 0 L 606.614 3.175 L 595.105 3.175 L 584.175 3.175 Z" id="bottom_outsideCutPath" stroke="#FF0000" stroke-width="0.1" style="stroke:#FF0000;stroke-width:0.1" vector-effect="non-scaling-stroke"/><path d="M 836.011 109.25 L 832.931 109.25 L 832.931 96.02 A 9.086 9.086 0 0 0 832.839 94.684 Q 832.737 94.002 832.523 93.452 A 3.722 3.722 0 0 0 831.892 92.374 A 3.241 3.241 0 0 0 830.385 91.4 Q 829.638 91.159 828.663 91.159 Q 825.787 91.159 824.414 92.81 A 5.09 5.09 0 0 0 823.551 94.372 Q 823.045 95.791 823.041 97.862 A 17.105 17.105 0 0 0 823.041 97.894 L 823.041 109.25 L 819.961 109.25 L 819.961 96.02 A 9.086 9.086 0 0 0 819.869 94.684 Q 819.768 94.002 819.553 93.452 A 3.722 3.722 0 0 0 818.922 92.374 Q 818.022 91.322 816.248 91.181 A 7.213 7.213 0 0 0 815.675 91.159 A 7.65 7.65 0 0 0 814.093 91.312 Q 813.116 91.518 812.389 92.004 A 4.037 4.037 0 0 0 811.435 92.894 Q 810.09 94.628 810.09 98.581 L 810.09 109.25 L 807.01 109.25 L 807.01 88.914 L 809.515 88.914 L 810.016 91.697 L 810.164 91.697 A 6.053 6.053 0 0 1 812.622 89.377 A 7.313 7.313 0 0 1 815.511 88.567 A 8.832 8.832 0 0 1 816.176 88.542 A 10.084 10.084 0 0 1 818.446 88.779 Q 821.328 89.446 822.41 91.994 L 822.559 91.994 A 6.431 6.431 0 0 1 824.981 89.589 A 7.727 7.727 0 0 1 825.193 89.47 Q 826.919 88.542 829.127 88.542 A 10.707 10.707 0 0 1 831.069 88.707 Q 833.101 89.082 834.294 90.314 Q 835.544 91.605 835.884 94.021 A 14.127 14.127 0 0 1 836.011 95.983 L 836.011 109.25 Z M 714.069 106.633 L 713.847 106.633 L 713.197 109.25 L 710.989 109.25 L 710.989 80.378 L 714.069 80.378 L 714.069 87.392 A 64.217 64.217 0 0 1 714.034 89.562 Q 714 90.588 713.93 91.501 A 38.482 38.482 0 0 1 713.921 91.623 L 714.069 91.623 A 7.003 7.003 0 0 1 719.181 88.654 A 10.52 10.52 0 0 1 720.452 88.58 A 9.414 9.414 0 0 1 723.101 88.933 A 7.047 7.047 0 0 1 726.677 91.316 Q 728.453 93.508 728.806 97.157 A 19.77 19.77 0 0 1 728.894 99.063 A 18.059 18.059 0 0 1 728.655 102.102 Q 728.378 103.721 727.781 105.02 A 8.657 8.657 0 0 1 726.659 106.847 A 7.292 7.292 0 0 1 721.476 109.572 A 10.447 10.447 0 0 1 720.452 109.621 A 9.343 9.343 0 0 1 718.104 109.334 A 8.129 8.129 0 0 1 716.825 108.888 A 6.822 6.822 0 0 1 714.069 106.633 Z M 766.579 106.708 L 766.579 109.064 Q 766.126 109.282 765.288 109.432 A 11.519 11.519 0 0 1 765.104 109.463 A 13.35 13.35 0 0 1 764.233 109.576 Q 763.823 109.615 763.455 109.62 A 7.894 7.894 0 0 1 763.35 109.621 A 8.045 8.045 0 0 1 760.98 109.302 Q 758.374 108.497 757.692 105.667 A 9.681 9.681 0 0 1 757.45 103.405 L 757.45 91.307 L 754.537 91.307 L 754.537 89.823 L 757.45 88.542 L 758.749 84.201 L 760.53 84.201 L 760.53 88.914 L 766.431 88.914 L 766.431 91.307 L 760.53 91.307 L 760.53 103.275 A 6.202 6.202 0 0 0 760.62 104.364 Q 760.726 104.962 760.961 105.435 A 2.988 2.988 0 0 0 761.402 106.095 A 2.861 2.861 0 0 0 763.161 107.032 A 4.117 4.117 0 0 0 763.796 107.079 A 10.115 10.115 0 0 0 765.278 106.973 A 9.33 9.33 0 0 0 765.373 106.958 A 16.662 16.662 0 0 0 765.818 106.882 Q 766.243 106.802 766.538 106.719 A 4.627 4.627 0 0 0 766.579 106.708 Z M 779.994 106.708 L 779.994 109.064 Q 779.542 109.282 778.703 109.432 A 11.519 11.519 0 0 1 778.519 109.463 A 13.35 13.35 0 0 1 777.649 109.576 Q 777.238 109.615 776.87 109.62 A 7.894 7.894 0 0 1 776.766 109.621 A 8.045 8.045 0 0 1 774.395 109.302 Q 771.789 108.497 771.107 105.667 A 9.681 9.681 0 0 1 770.865 103.405 L 770.865 91.307 L 767.952 91.307 L 767.952 89.823 L 770.865 88.542 L 772.164 84.201 L 773.945 84.201 L 773.945 88.914 L 779.846 88.914 L 779.846 91.307 L 773.945 91.307 L 773.945 103.275 A 6.202 6.202 0 0 0 774.035 104.364 Q 774.141 104.962 774.376 105.435 A 2.988 2.988 0 0 0 774.817 106.095 A 2.861 2.861 0 0 0 776.576 107.032 A 4.117 4.117 0 0 0 777.211 107.079 A 10.115 10.115 0 0 0 778.693 106.973 A 9.33 9.33 0 0 0 778.788 106.958 A 16.662 16.662 0 0 0 779.233 106.882 Q 779.658 106.802 779.953 106.719 A 4.627 4.627 0 0 0 779.994 106.708 Z M 751.545 102.158 A 15.91 15.91 0 0 0 751.828 99.063 A 18.076 18.076 0 0 0 751.821 98.574 Q 751.7 94.075 749.314 91.381 Q 746.8 88.542 742.532 88.542 A 11.963 11.963 0 0 0 740.383 88.727 A 8.147 8.147 0 0 0 735.63 91.316 A 8.509 8.509 0 0 0 734.585 92.766 Q 733.779 94.169 733.424 95.97 A 15.992 15.992 0 0 0 733.143 99.063 A 15.408 15.408 0 0 0 733.337 101.559 A 11.394 11.394 0 0 0 734.294 104.667 Q 735.444 107.06 737.559 108.34 A 8.576 8.576 0 0 0 739.528 109.216 A 9.891 9.891 0 0 0 742.402 109.621 A 11.96 11.96 0 0 0 744.491 109.446 A 8.212 8.212 0 0 0 749.323 106.828 Q 750.987 104.974 751.545 102.158 Z M 801.328 102.158 A 15.91 15.91 0 0 0 801.61 99.063 A 18.076 18.076 0 0 0 801.604 98.574 Q 801.482 94.075 799.096 91.381 Q 796.582 88.542 792.314 88.542 A 11.963 11.963 0 0 0 790.166 88.727 A 8.147 8.147 0 0 0 785.412 91.316 A 8.509 8.509 0 0 0 784.367 92.766 Q 783.562 94.169 783.206 95.97 A 15.992 15.992 0 0 0 782.926 99.063 A 15.408 15.408 0 0 0 783.119 101.559 A 11.394 11.394 0 0 0 784.076 104.667 Q 785.226 107.06 787.342 108.34 A 8.576 8.576 0 0 0 789.31 109.216 A 9.891 9.891 0 0 0 792.184 109.621 A 11.96 11.96 0 0 0 794.273 109.446 A 8.212 8.212 0 0 0 799.105 106.828 Q 800.769 104.974 801.328 102.158 Z M 736.991 103.339 A 6.462 6.462 0 0 0 737.893 105 A 5.048 5.048 0 0 0 741.181 106.937 A 7.65 7.65 0 0 0 742.476 107.042 A 7.154 7.154 0 0 0 744.364 106.807 A 4.979 4.979 0 0 0 747.069 105.01 A 6.612 6.612 0 0 0 748.098 103.004 Q 748.401 102.078 748.534 100.946 A 16.224 16.224 0 0 0 748.637 99.063 A 15.368 15.368 0 0 0 748.491 96.873 Q 748.33 95.758 747.991 94.855 A 6.342 6.342 0 0 0 747.069 93.172 A 5.067 5.067 0 0 0 743.919 91.293 A 7.768 7.768 0 0 0 742.439 91.159 A 7.33 7.33 0 0 0 740.614 91.372 A 4.906 4.906 0 0 0 737.875 93.144 A 6.368 6.368 0 0 0 736.885 95.057 Q 736.335 96.712 736.335 99.063 Q 736.335 101.591 736.991 103.339 Z M 786.773 103.339 A 6.462 6.462 0 0 0 787.676 105 A 5.048 5.048 0 0 0 790.964 106.937 A 7.65 7.65 0 0 0 792.259 107.042 A 7.154 7.154 0 0 0 794.146 106.807 A 4.979 4.979 0 0 0 796.851 105.01 A 6.612 6.612 0 0 0 797.881 103.004 Q 798.183 102.078 798.316 100.946 A 16.224 16.224 0 0 0 798.419 99.063 A 15.368 15.368 0 0 0 798.273 96.873 Q 798.112 95.758 797.774 94.855 A 6.342 6.342 0 0 0 796.851 93.172 A 5.067 5.067 0 0 0 793.701 91.293 A 7.768 7.768 0 0 0 792.222 91.159 A 7.33 7.33 0 0 0 790.397 91.372 A 4.906 4.906 0 0 0 787.657 93.144 A 6.368 6.368 0 0 0 786.667 95.057 Q 786.117 96.712 786.117 99.063 Q 786.117 101.591 786.773 103.339 Z M 720.007 91.159 A 8.655 8.655 0 0 0 718.33 91.31 Q 717.376 91.499 716.651 91.923 A 4.096 4.096 0 0 0 715.461 92.968 A 5.273 5.273 0 0 0 714.697 94.422 Q 714.069 96.183 714.069 99.063 Q 714.069 102.704 715.1 104.584 A 4.646 4.646 0 0 0 715.498 105.195 A 4.468 4.468 0 0 0 717.765 106.725 Q 718.522 106.962 719.446 107.022 A 9.904 9.904 0 0 0 720.081 107.042 A 6.14 6.14 0 0 0 721.825 106.808 A 4.43 4.43 0 0 0 724.311 104.973 Q 725.306 103.495 725.589 101.094 A 17.649 17.649 0 0 0 725.703 99.026 A 18.197 18.197 0 0 0 725.593 96.952 Q 725.312 94.507 724.311 93.107 A 4.492 4.492 0 0 0 721.452 91.297 A 7.124 7.124 0 0 0 720.007 91.159 Z" id="bottom_labelLayer" stroke="#777777" fill="#777777" style="stroke:#777777;fill:#777777" vector-effect="non-scaling-stroke"/></g></svg>